<?xml version="1.0" standalone="no"?>
<!DOCTYPE svg PUBLIC "-//W3C//DTD SVG 1.1//EN" "http://www.w3.org/Graphics/SVG/1.1/DTD/svg11.dtd" >
<svg xmlns="http://www.w3.org/2000/svg">
<defs>
  <font id="icon-font" horiz-adv-x="1000">
    <font-face font-family="icon-font"
      units-per-em="1000" ascent="1000"
      descent="0" />
    <missing-glyph horiz-adv-x="0" />
    <glyph glyph-name="bin"
      unicode="&#xE001;"
      horiz-adv-x="1000" d="M156.25 687.5V62.5C156.25 28.125 184.375 0 218.75 0H781.25C815.625 0 843.75 28.125 843.75 62.5V687.5H156.25zM343.75 125H281.25V562.5H343.75V125zM468.75 125H406.25V562.5H468.75V125zM593.75 125H531.25V562.5H593.75V125zM718.75 125H656.25V562.5H718.75V125zM859.375 875H656.25V953.125C656.25 978.90625 635.15625 1000 609.375 1000H390.625C364.84375 1000 343.75 978.90625 343.75 953.125V875H140.625C114.84375 875 93.75 853.90625 93.75 828.125V750H906.25V828.125C906.25 853.90625 885.15625 875 859.375 875zM593.75 875H406.25V936.71875H593.75V875z" />
    <glyph glyph-name="clone"
      unicode="&#xE002;"
      horiz-adv-x="1000" d="M928.5714285714286 89.2857142857142V696.4285714285714C928.5714285714286 705.9285714285714 920.2142857142856 714.2857142857142 910.7142857142858 714.2857142857142H303.5714285714286C294.0714285714286 714.2857142857142 285.7142857142857 705.9285714285714 285.7142857142857 696.4285714285714V89.2857142857142C285.7142857142857 79.7857142857143 294.0714285714286 71.4285714285715 303.5714285714286 71.4285714285715H910.7142857142858C920.2142857142856 71.4285714285715 928.5714285714286 79.7857142857143 928.5714285714286 89.2857142857142zM1000 696.4285714285714V89.2857142857142C1000 40.1785714285714 959.8214285714286 0 910.7142857142858 0H303.5714285714286A89.53571428571429 89.53571428571429 0 0 0 214.2857142857143 89.2857142857142V696.4285714285714C214.2857142857143 745.5357142857142 254.4642857142857 785.7142857142858 303.5714285714286 785.7142857142858H910.7142857142858C959.8214285714286 785.7142857142858 1000 745.5357142857142 1000 696.4285714285714zM785.7142857142858 910.7142857142856V821.4285714285714H714.2857142857143V910.7142857142856C714.2857142857143 920.2142857142856 705.9285714285713 928.5714285714286 696.4285714285714 928.5714285714286H89.2857142857143C79.7857142857143 928.5714285714286 71.4285714285714 920.2142857142856 71.4285714285714 910.7142857142856V303.5714285714286C71.4285714285714 294.0714285714287 79.7857142857143 285.7142857142857 89.2857142857143 285.7142857142857H178.5714285714286V214.2857142857142H89.2857142857143A89.53571428571429 89.53571428571429 0 0 0 0 303.5714285714286V910.7142857142856C0 959.8214285714286 40.1785714285714 1000 89.2857142857143 1000H696.4285714285714C745.5357142857143 1000 785.7142857142858 959.8214285714286 785.7142857142858 910.7142857142856z" />
    <glyph glyph-name="column"
      unicode="&#xE003;"
      horiz-adv-x="1000" d="M645.5 791H854.5V250H645.5V791zM145.5 250V791H354.5V250H145.5zM395.5 250V791H604.5V250H395.5z" />
    <glyph glyph-name="config"
      unicode="&#xE004;"
      horiz-adv-x="1000" d="M979.444124052707 201.28125L529.6941240527069 586.78125A281.25 281.25 0 0 1 199.6003740527069 987.90625L362.1003740527069 825.40625A62.65625 62.65625 0 0 0 362.1003740527069 737.03125L262.9753740527069 637.90625A62.65625 62.65625 0 0 0 174.6003740527069 637.90625L12.1003740527068 800.40625A281.25 281.25 0 0 1 413.2253740527069 470.3125L798.7253740527069 20.5625A57.12500000000001 57.12500000000001 0 0 1 883.6003740527069 17.3125000000001L982.725374052707 116.4375000000001C1007.037874052707 140.75 1005.569124052707 178.9375000000001 979.475374052707 201.3125000000001z" />
    <glyph glyph-name="debug"
      unicode="&#xE005;"
      horiz-adv-x="1000" d="M1000 437.5V500H811.25C805.53125 570.96875 780.2187500000001 635.78125 741.25 687.75H899.40625L967.8125 961.4375L907.1874999999998 976.59375L850.5937499999999 750.28125H680L677.3750000000001 752.28125C683.9375000000001 771.3125 687.5000000000001 791.75 687.5000000000001 813.03125C687.5000000000001 916.3125 603.5625000000001 1000.03125 500.0000000000001 1000.03125S312.5000000000001 916.3125 312.5000000000001 813.03125C312.5000000000001 791.78125 316.0625000000001 771.34375 322.6250000000001 752.28125L320.0000000000001 750.28125H149.40625L92.8125 976.59375L32.1875 961.4375L100.59375 687.75H258.75C219.8125 635.78125 194.5 571 188.75 500H0V437.5H188.84375A368.1875 368.1875 0 0 1 221.6875 312.75H100.59375L32.1875 39.09375L92.8125 23.9375L149.40625 250.28125H259.125C316.4375 174.0625 403.0625 125.53125 500 125.53125S683.5625 174.0937499999999 740.875 250.28125H850.5937499999999L907.1874999999998 23.9375L967.8125 39.0937499999999L899.40625 312.7499999999999H778.3125A367.5 367.5 0 0 1 811.15625 437.5H1000z" />
    <glyph glyph-name="export"
      unicode="&#xE006;"
      horiz-adv-x="1000" d="M499.9687499999999 437.5L749.96875 687.5H562.46875V937.5H437.46875V687.5H249.96875zM727.25 539.78125L657.1875 469.71875L911.1875 375L499.9999999999999 221.65625L88.8124999999999 375L342.78125 469.71875L272.71875 539.78125L-1e-13 437.5V187.5L500 0L1000 187.5V437.5z" />
    <glyph glyph-name="hammer"
      unicode="&#xE007;"
      horiz-adv-x="1000" d="M986.3106034590592 190.46875L691.8418534590594 484.9375A47.03125 47.03125 0 0 1 625.5606034590594 484.9375L603.4668534590594 462.84375L423.7793534590594 642.53125L718.7481034590593 937.5H406.2481034590593L267.5293534590593 798.78125L253.8106034590593 812.5H187.5293534590593V746.21875L201.2481034590593 732.5L0.0293534590593 531.28125L156.2793534590593 375.0312499999999L357.4981034590594 576.25L537.1856034590593 396.5624999999999L515.0918534590593 374.4687499999999A47.03125 47.03125 0 0 1 515.0918534590593 308.1875L809.5606034590593 13.71875A47.03125 47.03125 0 0 1 875.8418534590592 13.71875L986.3106034590592 124.1875A47.03125 47.03125 0 0 1 986.3106034590592 190.46875z" />
    <glyph glyph-name="image"
      unicode="&#xE008;"
      horiz-adv-x="1000" d="M937.375 875L937.5 874.875V125.09375L937.375 124.96875H62.59375L62.46875 125.09375V874.875L62.59375 875H937.375zM937.5 937.5H62.5C28.125 937.5 0 909.375 0 875V125C0 90.625 28.125 62.5 62.5 62.5H937.5C971.875 62.5 1000 90.625 1000 125V875C1000 909.375 971.875 937.5 937.5 937.5zM812.5 718.75A93.75 93.75 0 1 0 625 718.75A93.75 93.75 0 0 0 812.5 718.75zM875 187.5H125V312.5L343.75 687.5L593.75 375H656.25L875 562.5z" />
    <glyph glyph-name="info"
      unicode="&#xE009;"
      horiz-adv-x="1000" d="M500 906.25C391.5 906.25 289.46875 864 212.75 787.25S93.75 608.5 93.75 500C93.75 391.5 136 289.4687499999999 212.75 212.75S391.5 93.75 500 93.75C608.5 93.75 710.5312500000001 136 787.25 212.75S906.25 391.5 906.25 500C906.25 608.5 864 710.53125 787.25 787.25S608.5 906.25 500 906.25zM500 1000C776.15625 1000 1000 776.15625 1000 500S776.15625 0 500 0S0 223.84375 0 500S223.84375 1000 500 1000zM437.5 312.5H562.5V187.5H437.5zM437.5 812.5H562.5V437.5H437.5z" />
    <glyph glyph-name="layers"
      unicode="&#xE00A;"
      horiz-adv-x="1000" d="M1000 687.5L500 937.5L0 687.5L500 437.5L1000 687.5zM500 854.53125L834.03125 687.5L500 520.46875L165.96875 687.5L500 854.53125zM899.84375 550.0625L1000 500L500 250L0 500L100.15625 550.0625L500 350.125zM899.84375 362.5625L1000 312.5L500 62.5L0 312.5L100.15625 362.5625L500 162.625z" />
    <glyph glyph-name="logo"
      unicode="&#xE00B;"
      horiz-adv-x="1000" d="M77.6315789473685 923.6842105263158H269.7368421052632C311.8421052631579 923.6842105263158 346.0526315789474 889.4736842105262 346.0526315789474 847.3684210526314V155.2631578947368C346.0526315789474 113.157894736842 311.8421052631579 78.9473684210526 269.7368421052632 78.9473684210526H77.6315789473685C35.5263157894738 78.9473684210526 1.3157894736843 113.157894736842 1.3157894736843 155.2631578947368V847.3684210526314C1.3157894736843 889.4736842105262 35.5263157894738 923.6842105263158 77.6315789473685 923.6842105263158zM461.8421052631579 923.6842105263158H922.3684210526316C964.4736842105264 923.6842105263158 998.6842105263158 889.4736842105262 998.6842105263158 847.3684210526314V731.578947368421C998.6842105263158 689.4736842105262 964.4736842105264 655.2631578947368 922.3684210526316 655.2631578947368H461.8421052631579C419.7368421052632 655.2631578947368 385.5263157894737 689.4736842105262 385.5263157894737 731.578947368421V847.3684210526314C385.5263157894737 889.4736842105262 419.7368421052632 923.6842105263158 461.8421052631579 923.6842105263158zM461.8421052631579 615.7894736842104H922.3684210526316C964.4736842105264 615.7894736842104 998.6842105263158 581.578947368421 998.6842105263158 539.4736842105262V155.2631578947368C998.6842105263158 113.157894736842 964.4736842105264 78.9473684210526 922.3684210526316 78.9473684210526H461.8421052631579C419.7368421052632 78.9473684210526 385.5263157894737 113.157894736842 385.5263157894737 155.2631578947368V539.4736842105262C385.5263157894737 581.578947368421 419.7368421052632 615.7894736842104 461.8421052631579 615.7894736842104z" />
    <glyph glyph-name="minus"
      unicode="&#xE00C;"
      horiz-adv-x="1000" d="M0 593.75V406.25A31.25 31.25 0 0 1 31.25 375H968.75A31.25 31.25 0 0 1 1000 406.25V593.75A31.25 31.25 0 0 1 968.75 625H31.25A31.25 31.25 0 0 1 0 593.75z" />
    <glyph glyph-name="modules"
      unicode="&#xE00D;"
      horiz-adv-x="1000" d="M375 937.5H1000V812.5H375V937.5zM375 562.5H1000V437.5H375V562.5zM375 187.5H1000V62.5H375V187.5zM0 875A125 125 0 1 0 250 875A125 125 0 0 0 0 875zM0 500A125 125 0 1 0 250 500A125 125 0 0 0 0 500zM0 125A125 125 0 1 0 250 125A125 125 0 0 0 0 125z" />
    <glyph glyph-name="move-down"
      unicode="&#xE00E;"
      horiz-adv-x="1000" d="M308.5833333333333 673.8333333333333L500 482.4166666666666L691.4166666666666 673.8333333333333L750 615.25L500 365.25L250 615.25z" />
    <glyph glyph-name="move-up"
      unicode="&#xE00F;"
      horiz-adv-x="1000" d="M308.5833333333333 357.4166666666667L250 416L500 666L750 416L691.4166666666666 357.4166666666667L500 548.8333333333334z" />
    <glyph glyph-name="move"
      unicode="&#xE010;"
      horiz-adv-x="1000" d="M1000 500A35.35714285714286 35.35714285714286 0 0 0 989.3928571428572 474.8928571428571L846.5357142857143 332.0357142857144A35.57142857142858 35.57142857142858 0 0 0 821.4285714285714 321.4285714285715C801.8928571428571 321.4285714285715 785.7142857142858 337.6071428571428 785.7142857142858 357.1428571428571V428.5714285714286H571.4285714285714V214.2857142857142H642.8571428571429C662.3928571428572 214.2857142857142 678.5714285714286 198.1071428571429 678.5714285714286 178.5714285714286A35.35714285714286 35.35714285714286 0 0 0 667.9642857142857 153.4642857142857L525.1071428571429 10.6071428571429C518.4285714285714 3.9285714285713 509.4642857142857 0 500 0S481.5714285714286 3.8928571428572 474.8928571428572 10.6071428571429L332.0357142857144 153.4642857142857A35.57142857142858 35.57142857142858 0 0 0 321.4285714285715 178.5714285714286C321.4285714285715 198.1071428571429 337.6071428571429 214.2857142857142 357.1428571428572 214.2857142857142H428.5714285714286V428.5714285714286H214.2857142857143V357.1428571428571C214.2857142857143 337.6071428571428 198.1071428571429 321.4285714285715 178.5714285714286 321.4285714285715A35.35714285714286 35.35714285714286 0 0 0 153.4642857142857 332.0357142857144L10.6071428571428 474.8928571428571C3.9285714285714 481.5714285714286 0 490.5357142857143 0 500S3.8928571428571 518.4285714285713 10.6071428571429 525.1071428571429L153.4642857142857 667.9642857142857A35.57142857142858 35.57142857142858 0 0 0 178.5714285714286 678.5714285714286C198.1071428571429 678.5714285714286 214.2857142857143 662.3928571428571 214.2857142857143 642.8571428571429V571.4285714285714H428.5714285714286V785.7142857142858H357.1428571428572C337.6071428571429 785.7142857142858 321.4285714285715 801.8928571428571 321.4285714285715 821.4285714285714A35.35714285714286 35.35714285714286 0 0 0 332.0357142857144 846.5357142857142L474.8928571428572 989.3928571428572C481.5714285714286 996.0714285714286 490.5357142857143 1000 500 1000S518.4285714285714 996.1071428571428 525.1071428571429 989.3928571428572L667.9642857142857 846.5357142857142A35.57142857142858 35.57142857142858 0 0 0 678.5714285714286 821.4285714285714C678.5714285714286 801.8928571428571 662.3928571428572 785.7142857142858 642.8571428571429 785.7142857142858H571.4285714285714V571.4285714285714H785.7142857142858V642.8571428571429C785.7142857142858 662.3928571428571 801.8928571428571 678.5714285714286 821.4285714285714 678.5714285714286A35.35714285714286 35.35714285714286 0 0 0 846.5357142857143 667.9642857142857L989.3928571428572 525.1071428571429A35.57142857142858 35.57142857142858 0 0 0 1000 500z" />
    <glyph glyph-name="plus-circle"
      unicode="&#xE011;"
      horiz-adv-x="1000" d="M500 958.3333333333334C245.8333333333334 958.3333333333334 41.6666666666667 754.1666666666666 41.6666666666667 500S245.8333333333334 41.6666666666667 500 41.6666666666667S958.3333333333331 245.8333333333334 958.3333333333331 500S754.1666666666666 958.3333333333334 500 958.3333333333334zM500 125C291.6666666666667 125 125 291.6666666666668 125 500S291.6666666666667 875 500 875S875 708.3333333333334 875 500S708.3333333333333 125 500 125zM666.6666666666666 541.6666666666667H541.6666666666666V666.6666666666667C541.6666666666666 691.6666666666667 525 708.3333333333334 500 708.3333333333334S458.3333333333333 691.6666666666667 458.3333333333333 666.6666666666667V541.6666666666667H333.3333333333333C308.3333333333333 541.6666666666667 291.6666666666667 525 291.6666666666667 500S308.3333333333333 458.3333333333334 333.3333333333333 458.3333333333334H458.3333333333333V333.3333333333334C458.3333333333333 308.3333333333333 475 291.6666666666668 500 291.6666666666668S541.6666666666666 308.3333333333333 541.6666666666666 333.3333333333334V458.3333333333334H666.6666666666666C691.6666666666667 458.3333333333334 708.3333333333333 475 708.3333333333333 500S691.6666666666667 541.6666666666667 666.6666666666666 541.6666666666667z" />
    <glyph glyph-name="plus"
      unicode="&#xE012;"
      horiz-adv-x="1000" d="M968.75 625H625V968.75A31.25 31.25 0 0 1 593.75 1000H406.25A31.25 31.25 0 0 1 375 968.75V625H31.25A31.25 31.25 0 0 1 0 593.75V406.25A31.25 31.25 0 0 1 31.25 375H375V31.25A31.25 31.25 0 0 1 406.25 0H593.75A31.25 31.25 0 0 1 625 31.25V375H968.75A31.25 31.25 0 0 1 1000 406.25V593.75A31.25 31.25 0 0 1 968.75 625z" />
    <glyph glyph-name="preview"
      unicode="&#xE013;"
      horiz-adv-x="1000" d="M500 812.5C281.90625 812.5 92.875 685.5 0 500C92.875 314.5 281.90625 187.5 500 187.5S907.09375 314.5 1000 500C907.125 685.5 718.09375 812.5 500 812.5zM746.53125 646.78125A475.37500000000006 475.37500000000006 0 0 0 892.46875 500A475.71875000000006 475.71875000000006 0 0 0 746.5312500000001 353.21875C672.71875 306.125 587.46875 281.25 500 281.25S327.28125 306.125 253.4687500000001 353.21875A475.37500000000006 475.37500000000006 0 0 0 107.53125 500A475.71875000000006 475.71875000000006 0 0 0 265.0625 653.90625A250 250 0 1 1 734.9375 653.90625C738.8125 651.59375 742.6875 649.21875 746.53125 646.78125zM500 593.75A93.75 93.75 0 1 0 312.5 593.75A93.75 93.75 0 0 0 500 593.75z" />
    <glyph glyph-name="redo"
      unicode="&#xE014;"
      horiz-adv-x="1000" d="M0.0001595995886 437.5A498.75 498.75 0 0 1 169.2814095995886 62.5L251.9689095995886 156.25A374.15625 374.15625 0 0 0 125.0001595995886 437.5C125.0001595995886 644.59375 292.9064095995886 812.5 500.0001595995886 812.5C603.5626595995886 812.5 697.3126595995886 770.53125 765.1564095995886 702.65625L625.0001595995886 562.5H1000.0001595995886V937.5L853.5314095995886 791.03125A498.3125 498.3125 0 0 1 500.0001595995886 937.5C223.8439095995886 937.5 0.0001595995886 713.65625 0.0001595995886 437.5z" />
    <glyph glyph-name="remove"
      unicode="&#xE015;"
      horiz-adv-x="1000" d="M612.09375 499.9687499999999L802.59375 309.46875A31.718749999999996 31.718749999999996 0 0 0 802.59375 264.625L735.375 197.40625A31.718749999999996 31.718749999999996 0 0 0 690.53125 197.40625L500 387.90625L309.4687499999999 197.40625A31.687500000000004 31.687500000000004 0 0 0 264.65625 197.40625L197.40625 264.625A31.718749999999996 31.718749999999996 0 0 0 197.40625 309.46875L387.9375 499.9687499999999L197.40625 690.5A31.718749999999996 31.718749999999996 0 0 0 197.40625 735.34375L264.6875 802.5625A31.687500000000004 31.687500000000004 0 0 0 309.5 802.5625L500 612.03125L690.53125 802.5625A31.718749999999996 31.718749999999996 0 0 0 735.375 802.5625L802.59375 735.3125A31.718749999999996 31.718749999999996 0 0 0 802.59375 690.46875L612.09375 499.9687500000001z" />
    <glyph glyph-name="section"
      unicode="&#xE016;"
      horiz-adv-x="1000" d="M62.5 812.5H937.5V625H62.5zM62.5 562.5H937.5V375H62.5zM62.5 312.5H937.5V125H62.5z" />
    <glyph glyph-name="settings"
      unicode="&#xE017;"
      horiz-adv-x="1000" d="M437.5 875V890.625C437.5 916.40625 416.40625 937.5 390.625 937.5H234.375C208.59375 937.5 187.5 916.40625 187.5 890.625V875H0V750H187.5V734.375C187.5 708.59375 208.59375 687.5 234.375 687.5H390.625C416.40625 687.5 437.5 708.59375 437.5 734.375V750H1000V875H437.5zM250 750V875H375V750H250zM812.5 578.125C812.5 603.90625 791.40625 625 765.625 625H609.375C583.59375 625 562.5 603.90625 562.5 578.125V562.5H0V437.5H562.5V421.875C562.5 396.09375 583.59375 375 609.375 375H765.625C791.40625 375 812.5 396.09375 812.5 421.875V437.5H1000V562.5H812.5V578.125zM625 437.5V562.5H750V437.5H625zM437.5 265.625C437.5 291.40625 416.40625 312.5 390.625 312.5H234.375C208.59375 312.5 187.5 291.40625 187.5 265.625V250H0V125H187.5V109.375C187.5 83.59375 208.59375 62.5 234.375 62.5H390.625C416.40625 62.5 437.5 83.59375 437.5 109.375V125H1000V250H437.5V265.625zM250 125V250H375V125H250z" />
    <glyph glyph-name="title"
      unicode="&#xE018;"
      horiz-adv-x="1000" d="M208.9791666666667 834H791.0208333333333V709H562.5208333333333V209H437.5208333333333V709H209.0208333333334V834z" />
    <glyph glyph-name="undo"
      unicode="&#xE019;"
      horiz-adv-x="1000" d="M499.9685904004114 937.5A498.3125 498.3125 0 0 1 146.4373404004114 791.03125L-0.0001595995886 937.5V562.5H374.9998404004114L234.8435904004114 702.65625A373.81249999999994 373.81249999999994 0 0 0 499.9998404004114 812.5C707.0935904004114 812.5 874.9998404004114 644.59375 874.9998404004114 437.5C874.9998404004114 325.5 825.8748404004115 224.9687499999999 748.0310904004115 156.25L830.7185904004115 62.5A498.75 498.75 0 0 1 999.9998404004114 437.5C999.9998404004114 713.65625 776.1560904004115 937.5 499.9998404004115 937.5z" />
  </font>
</defs>
</svg>
